<svg xmlns="http://www.w3.org/2000/svg" width="24" height="24" fill="currentColor" viewBox="0 0 24 24">
  <path d="M12 .5C5.65.5.5 5.65.5 12c0 5.08 3.29 9.39 7.84 10.93.57.11.78-.25.78-.56v-2.02c-3.19.69-3.87-1.54-3.87-1.54-.52-1.32-1.28-1.67-1.28-1.67-1.04-.71.08-.7.08-.7 1.15.08 1.76 1.18 1.76 1.18 1.02 1.75 2.68 1.24 3.33.95.1-.74.4-1.25.73-1.54-2.55-.29-5.23-1.28-5.23-5.71 0-1.26.45-2.29 1.18-3.1-.12-.29-.51-1.45.11-3.03 0 0 .97-.31 3.17 1.18a10.96 10.96 0 0 1 5.78 0c2.2-1.49 3.17-1.18 3.17-1.18.62 1.58.23 2.74.11 3.03.73.81 1.18 1.84 1.18 3.1 0 4.44-2.69 5.42-5.25 5.7.42.36.78 1.09.78 2.2v3.26c0 .31.21.67.79.56A10.52 10.52 0 0 0 23.5 12C23.5 5.65 18.35.5 12 .5z"/>
</svg>